<svg xmlns="http://www.w3.org/2000/svg" width="256" height="256" viewBox="0 0 256 256">
  <rect x="8" y="8" width="240" height="240" rx="58" fill="#0C0E14"/>
  <rect x="12" y="12" width="232" height="232" rx="54" fill="none" stroke="#2A303A" stroke-width="4"/>
  <g transform="translate(0 0)" fill="#C4889A" fill-opacity="0.12" stroke="#C4889A" stroke-width="8" stroke-linecap="round" stroke-linejoin="round">
    <path d="M128 128 C98 101 90 63 128 36 C166 63 158 101 128 128 Z"/>
    <path d="M128 128 C98 101 90 63 128 36 C166 63 158 101 128 128 Z" transform="rotate(72 128 128)"/>
    <path d="M128 128 C98 101 90 63 128 36 C166 63 158 101 128 128 Z" transform="rotate(144 128 128)"/>
    <path d="M128 128 C98 101 90 63 128 36 C166 63 158 101 128 128 Z" transform="rotate(216 128 128)"/>
    <path d="M128 128 C98 101 90 63 128 36 C166 63 158 101 128 128 Z" transform="rotate(288 128 128)"/>
  </g>
  <circle cx="128" cy="128" r="18" fill="#6B9CC8"/>
  <circle cx="128" cy="128" r="7" fill="#DFE1EA"/>
</svg>
